# xmcd
#
# Track frame offsets: 
#        150
#        33050
#        73040
#        86165
#        106942
#        134407
#        158425
#        181180
#        202395
#
# Disc length: 3125 seconds
#
# Revision: 0
# Processed by: cddbd v1.5.2PL0 Copyright (c) Steve Scherf et al.
# Submitted via: ExactAudioCopy v1.0b1
#
DISCID=750c3309
DTITLE=John Hicks - I'll Give You Something to Remember Me by...
DYEAR=1988
DGENRE=Jazz
TTITLE0=Hold It Down
TTITLE1=Pas De Trois
TTITLE2=Monk's Mood
TTITLE3=I Didn't Know What Time It Was
TTITLE4=Airegin
TTITLE5=My Foolish Heart
TTITLE6=Blue In Green
TTITLE7=Coral Keys
TTITLE8=Ted's Delight
EXTD=
EXTT0=
EXTT1=
EXTT2=
EXTT3=
EXTT4=
EXTT5=
EXTT6=
EXTT7=
EXTT8=
PLAYORDER=
